<svg width="500" height="500" viewBox="0 0 500 500" fill="none" xmlns="http://www.w3.org/2000/svg">
<path fill-rule="evenodd" clip-rule="evenodd" d="M164.015 360.478C164.028 360.129 164.035 359.776 164.035 359.421V160.696H317.231L164.015 360.478ZM147.262 382.323C144.794 383.133 142.182 383.539 139.425 383.539C132.206 383.539 126.3 381.242 121.706 376.648C117.44 372.054 115.307 366.312 115.307 359.421V62.6255C115.307 56.0629 117.604 50.4846 122.198 45.8908C126.792 41.2969 132.698 39 139.917 39C146.48 39 152.058 41.2969 156.652 45.8908C161.574 50.4846 164.035 56.0629 164.035 62.6255V115.906H363.006C369.568 115.906 375.475 118.203 380.725 122.797C385.975 127.062 388.6 132.477 388.6 139.039C388.6 143.633 386.795 148.555 383.186 153.805L182.369 415.655H360.052C366.943 415.655 372.521 417.788 376.787 422.053C381.381 425.991 383.678 431.241 383.678 437.804C383.678 444.366 381.381 449.781 376.787 454.046C372.193 458.312 366.615 460.445 360.052 460.445H135.61C128.719 460.445 122.813 458.148 117.891 453.554C113.297 448.632 111 443.218 111 437.312C111 432.061 112.805 427.139 116.414 422.546L147.262 382.323Z" fill="white"/>
</svg>
